#!OML:ASF E:/inclinewalkrobotboard/Project1/Captureday1/Session1/subject1.ASF
:FULLY-SPECIFIED
:DEGREES
113
root 0 0 0 1.9549228824981277 1.2389636380666524 -1.02923456061735
lowerback 10.965301238865749 -0.2690745597352572 -2.3004543761080276
upperback 2.199837328718554 -0.6598241364835644 1.0971528228365712
thorax -3.722817709999431 -0.23657516363065656 2.4242322389075297
lowerneck -6.260626316135754 -2.026823705471411 -0.20905636659066285
upperneck 24.142805787088744 -3.1393193573121527 2.578104861463706
head 9.067957555568423 -1.3127801186791677 0.660127813053054
rclavicle 5.019083609025411E-15 2.5368114860694564E-15
rhumerus -7.558656921744278 14.22923438922281 -50.32456240266319
rradius 107.53715669776179
rwrist -43.034197404344184
rhand -4.076103829644481 -54.63525052607182
rfingers 7.125020000000006
rthumb 21.692030547472775 -83.23646062240525
lclavicle 1.6612633349497151E-15 3.786378265185196E-15
lhumerus -44.52022686891834 -7.583102836490044 85.29346700011044
lradius 62.025674828165236
lwrist 7.317758804816966
lhand -11.728963711172057 -28.921548150903632
lfingers 7.125020000000019
lthumb 14.32734632054773 0.6389411541632519
rfemur 1.1874674411517345 -0.5207819026430687 -2.93862689223989
rtibia -4.538059578811129
rfoot 0.8912368823578056 0.6384344728167197
rtoes -0.7362377538535532
lfemur 0.8304631112429997 -6.402199764484331 -10.165762817036281
ltibia 22.337945508837628
lfoot -28.192689639475276 14.326239611144086
ltoes -60.14577469666078
114
root 0 0 0 1.9758602193248298 1.2388322493331132 -1.0260149082382464
lowerback 10.972638184839042 -0.27339838173011655 -2.300459015720995
upperback 2.1693430910377307 -0.6657089432208496 1.0974291984434799
thorax -3.758715012082745 -0.2394717614127183 2.4241018991281718
lowerneck -6.309051869926622 -2.018723694522164 -0.20378044826108177
upperneck 24.196757301055822 -3.127359691456384 2.547643840293423
head 9.09544394488568 -1.3078599542969622 0.6491804241219721
rclavicle 5.0534377718400496E-15 2.548021105803282E-15
rhumerus -7.626110198522763 14.167375667869027 -50.359403241421255
rradius 107.44079849786633
rwrist -42.99660279570293
rhand -4.077690824462138 -54.64318708116743
rfingers 7.125020000000006
rthumb 21.690338819858898 -83.24568590649517
lclavicle 1.6985824243999818E-15 3.78867163779454E-15
lhumerus -44.51894201957672 -7.574931807727445 85.30070359373748
lradius 62.0083168593527
lwrist 7.304415004869956
lhand -11.724989341009296 -28.924768485531178
lfingers 7.125020000000019
lthumb 14.331076767167147 0.6356062543172953
rfemur 1.1921760946662205 -0.5224960100468512 -2.9477672530171564
rtibia -4.55209606573527
rfoot 0.8943543656516191 0.6408449967300895
rtoes -0.7380716186030079
lfemur 0.8376588804986698 -6.408787461842149 -10.170787240565788
ltibia 22.334356283663922
lfoot -28.192120745713645 14.326102810029955
ltoes -60.12618658555224
115
root 0 0 0 1.9938378469813283 1.2377323896359655 -1.0230449482595625
lowerback 10.976862674100161 -0.277418483101849 -2.300250954480145
upperback 2.140662017821168 -0.6711529340258873 1.0979411412851436
thorax -3.7910207594786383 -0.24214857683369517 2.424213071352275
lowerneck -6.35423552553972 -2.0109805361270334 -0.1990182708126924
upperneck 24.2492663280576 -3.11600004390469 2.5197891576703926
head 9.12168432111969 -1.3031242868652702 0.6391724294956557
rclavicle 5.078834999873561E-15 2.556383907119226E-15
rhumerus -7.697334459903571 14.107429703812326 -50.39832249141324
rradius 107.33884319863233
rwrist -42.95821444175628
rhand -4.078490592854218 -54.65029797615199
rfingers 7.125020000000006
rthumb 21.689406135593675 -83.25390803114468
lclavicle 1.7235185472240157E-15 3.790180879929259E-15
lhumerus -44.516291553186015 -7.567683692715393 85.30897653986416
lradius 61.991144484062204
lwrist 7.291563217653941
lhand -11.721258381979949 -28.92777717756197
lfingers 7.125020000000019
lthumb 14.33453057361384 0.6324610299736015
rfemur 1.1962373581860808 -0.5240394432497748 -2.955556285292589
rtibia -4.5635157455281
rfoot 0.8973172770514051 0.6430101869120164
rtoes -0.7394030367851425
lfemur 0.842317180590693 -6.413120306177912 -10.174949072366758
ltibia 22.332572200951375
lfoot -28.190202655267285 14.32479541162942
ltoes -60.10887522196769
116
root 0 0 0 2.0096175730315133 1.236414747829437 -1.0206624482288054
lowerback 10.98040179506744 -0.280962862001244 -2.2997333636486808
upperback 2.115361254779503 -0.6759209543547553 1.0984528808319303
thorax -3.8194092541946976 -0.24450773267327852 2.424186940021301
lowerneck -6.394440312470311 -2.003994137908081 -0.19472654746999463
upperneck 24.29621828918426 -3.1057355039902808 2.494790902299419
head 9.145045301516424 -1.2988420673007695 0.6301911534161484
rclavicle 5.101597152139012E-15 2.5674484142745393E-15
rhumerus -7.770085046355813 14.05229528495748 -50.440591469932016
rradius 107.23829000492155
rwrist -42.91650854248344
rhand -4.079752045579719 -54.65567574890254
rfingers 7.125020000000006
rthumb 21.688035089868528 -83.2603446798197
lclavicle 1.7452171034740473E-15 3.794931066936606E-15
lhumerus -44.51290165327353 -7.561238560347088 85.31772462788547
lradius 61.97453872439641
lwrist 7.279287002046745
lhand -11.717707337104311 -28.930553335001093
lfingers 7.125020000000019
lthumb 14.33780207698224 0.6295450697523606
rfemur 1.1997976305769589 -0.5253871475380678 -2.962302332491875
rtibia -4.5733274999888
rfoot 0.8999159572121629 0.6449060580634813
rtoes -0.7405027373300974
lfemur 0.8460498570396462 -6.416680781890085 -10.178355863259402
ltibia 22.331097489040264
lfoot -28.188606346335273 14.323744416739409
ltoes -60.094640714341125
